<svg width="160" height="160" viewBox="0 0 160 160" fill="none" xmlns="http://www.w3.org/2000/svg">
  <g opacity="0.9">
    <circle cx="80" cy="80" r="40" fill="#2563EB" fill-opacity="0.2"/>
    <circle cx="60" cy="60" r="6" fill="#2563EB"/>
    <circle cx="100" cy="60" r="6" fill="#7C3AED"/>
    <circle cx="80" cy="90" r="6" fill="#2563EB"/>
    <circle cx="50" cy="90" r="6" fill="#7C3AED"/>
    <circle cx="110" cy="90" r="6" fill="#2563EB"/>
    <circle cx="70" cy="120" r="6" fill="#7C3AED"/>
    <circle cx="90" cy="120" r="6" fill="#2563EB"/>
    <line x1="60" y1="60" x2="80" y2="90" stroke="#2563EB" stroke-width="1.5"/>
    <line x1="100" y1="60" x2="80" y2="90" stroke="#7C3AED" stroke-width="1.5"/>
    <line x1="80" y1="90" x2="50" y2="90" stroke="#2563EB" stroke-width="1.5"/>
    <line x1="80" y1="90" x2="110" y2="90" stroke="#7C3AED" stroke-width="1.5"/>
    <line x1="80" y1="90" x2="70" y2="120" stroke="#2563EB" stroke-width="1.5"/>
    <line x1="80" y1="90" x2="90" y2="120" stroke="#7C3AED" stroke-width="1.5"/>
    <line x1="60" y1="60" x2="100" y2="60" stroke="#2563EB" stroke-opacity="0.5" stroke-width="1.5"/>
    <line x1="50" y1="90" x2="110" y2="90" stroke="#7C3AED" stroke-opacity="0.5" stroke-width="1.5"/>
    <line x1="70" y1="120" x2="90" y2="120" stroke="#2563EB" stroke-opacity="0.5" stroke-width="1.5"/>
    <line x1="60" y1="60" x2="50" y2="90" stroke="#7C3AED" stroke-opacity="0.5" stroke-width="1.5"/>
    <line x1="100" y1="60" x2="110" y2="90" stroke="#2563EB" stroke-opacity="0.5" stroke-width="1.5"/>
    <line x1="50" y1="90" x2="70" y2="120" stroke="#7C3AED" stroke-opacity="0.5" stroke-width="1.5"/>
    <line x1="110" y1="90" x2="90" y2="120" stroke="#2563EB" stroke-opacity="0.5" stroke-width="1.5"/>
  </g>
</svg>
