<svg width="200" height="60" viewBox="0 0 200 60" fill="none" xmlns="http://www.w3.org/2000/svg">
  <path d="M20 15C20 12.2386 22.2386 10 25 10H45C47.7614 10 50 12.2386 50 15V45C50 47.7614 47.7614 50 45 50H25C22.2386 50 20 47.7614 20 45V15Z" fill="#2563EB"/>
  <path d="M55 15C55 12.2386 57.2386 10 60 10H80C82.7614 10 85 12.2386 85 15V45C85 47.7614 82.7614 50 80 50H60C57.2386 50 55 47.7614 55 45V15Z" fill="#7C3AED"/>
  <path d="M90 15C90 12.2386 92.2386 10 95 10H115C117.761 10 120 12.2386 120 15V45C120 47.7614 117.761 50 115 50H95C92.2386 50 90 47.7614 90 45V15Z" fill="#2563EB"/>
  <path d="M125 15C125 12.2386 127.239 10 130 10H150C152.761 10 155 12.2386 155 15V45C155 47.7614 152.761 50 150 50H130C127.239 50 125 47.7614 125 45V15Z" fill="#7C3AED"/>
  <path d="M160 15C160 12.2386 162.239 10 165 10H175C177.761 10 180 12.2386 180 15V45C180 47.7614 177.761 50 175 50H165C162.239 50 160 47.7614 160 45V15Z" fill="#2563EB"/>
  <text x="35" y="35" font-family="Arial" font-weight="bold" font-size="24" fill="white">ConCIFA</text>
</svg>
